<svg xmlns="http://www.w3.org/2000/svg" width="1064.198" height="291.358" viewBox="0 0 1064.198 291.358"><g fill="#4E4E4E"><path d="M177.452 100.374c-4.748-6.872-10.31-12.6-16.69-17.18-5.24-3.764-11.045-6.75-17.427-8.96-6.38-2.21-13.338-3.313-20.863-3.313-8.675 0-16.978 1.596-24.913 4.787-7.94 3.19-15.015 7.73-21.232 13.622-6.22 5.89-11.168 13.05-14.85 21.476-3.682 8.43-5.522 17.88-5.522 28.35 0 10.964 1.88 20.74 5.646 29.33 3.762 8.59 8.713 15.83 14.85 21.722 6.135 5.89 13.21 10.393 21.23 13.5 8.016 3.11 16.28 4.663 24.79 4.663 8.345 0 16.077-1.185 23.195-3.558 7.118-2.37 13.376-5.684 18.776-9.94 5.56-4.254 10.186-9.163 13.868-14.728 3.683-5.56 6.175-11.45 7.487-17.672H107.5v-23.81h111.923c0 5.746-.575 12.266-1.718 19.568-1.147 7.302-3.275 14.393-6.382 21.28-4.257 9.028-9.614 16.943-16.077 23.75-6.466 6.808-13.664 12.47-21.6 16.98-7.938 4.51-16.283 7.915-25.034 10.212-8.756 2.294-17.39 3.444-25.895 3.444-13.42 0-25.936-2.455-37.553-7.363-11.62-4.91-21.722-11.617-30.312-20.127-8.59-8.506-15.34-18.53-20.25-30.067-4.908-11.536-7.362-23.932-7.362-37.186 0-13.58 2.493-26.098 7.486-37.553 4.99-11.45 11.82-21.353 20.495-29.698 8.672-8.345 18.816-14.85 30.436-19.513 11.617-4.665 24.054-6.996 37.308-6.996 9.818 0 19.268 1.392 28.35 4.173 9.08 2.784 17.426 6.627 25.035 11.535 7.607 4.91 14.315 10.72 20.125 17.427 5.806 6.71 10.347 13.99 13.622 21.844h-32.645zM238.81 96.938h24.054v19.636c3.762-7.854 9.04-13.702 15.832-17.55 6.788-3.842 14.765-5.848 23.93-6.013v25.527h-1.717c-24.385 0-36.572 13.254-36.572 39.762v72.16h-25.526V96.938zM324.473 171.8c.326 6.71 1.883 12.6 4.67 17.67 2.785 5.075 6.353 9.328 10.697 12.764 4.345 3.437 9.1 6.014 14.263 7.732 5.162 1.72 10.285 2.577 15.37 2.577 9.014 0 16.76-2 23.237-6.013 6.474-4.008 11.598-9.53 15.367-16.567h26.56c-3.276 7.363-7.16 13.787-11.66 19.267-4.498 5.484-9.61 10.105-15.333 13.868-5.726 3.766-11.777 6.59-18.158 8.468-6.382 1.88-13.005 2.822-19.874 2.822-10.96 0-20.774-2.006-29.44-6.013-8.673-4.008-16.074-9.327-22.21-15.954-6.137-6.626-10.838-14.15-14.11-22.58-3.27-8.426-4.904-17.06-4.904-25.895 0-9.488 1.756-18.53 5.277-27.122 3.517-8.59 8.426-16.157 14.727-22.703 6.297-6.543 13.745-11.697 22.335-15.463 8.59-3.763 17.956-5.646 28.104-5.646 9.654 0 18.693 1.72 27.123 5.155 8.426 3.437 15.83 8.265 22.213 14.48 7.854 8.02 13.457 17.06 16.812 27.122 3.353 10.063 4.457 20.74 3.313 32.03H324.474zm88.85-19.88c-.33-4.42-1.637-8.838-3.927-13.256-2.293-4.418-5.36-8.425-9.204-12.026-3.847-3.598-8.388-6.504-13.622-8.713-5.238-2.21-11.045-3.23-17.427-3.068-6.546 0-12.48 1.066-17.795 3.19-5.32 2.13-9.86 4.95-13.622 8.468-3.766 3.52-6.75 7.486-8.96 11.904-2.208 4.417-3.478 8.92-3.803 13.5h88.36zM474.683 171.8c.326 6.71 1.883 12.6 4.67 17.67 2.785 5.075 6.353 9.328 10.697 12.764 4.345 3.437 9.1 6.014 14.263 7.732 5.162 1.72 10.285 2.577 15.37 2.577 9.014 0 16.76-2 23.237-6.013 6.475-4.008 11.598-9.53 15.367-16.567h26.56c-3.276 7.363-7.16 13.787-11.66 19.267-4.497 5.484-9.61 10.105-15.333 13.868-5.725 3.766-11.777 6.59-18.158 8.468-6.38 1.88-13.004 2.822-19.874 2.822-10.96 0-20.774-2.006-29.44-6.013-8.673-4.008-16.074-9.327-22.21-15.954-6.137-6.626-10.838-14.15-14.11-22.58-3.27-8.426-4.904-17.06-4.904-25.895 0-9.488 1.757-18.53 5.277-27.122 3.517-8.59 8.426-16.157 14.727-22.703 6.297-6.543 13.745-11.697 22.336-15.463 8.59-3.763 17.955-5.646 28.103-5.646 9.654 0 18.693 1.72 27.123 5.155 8.426 3.437 15.832 8.265 22.213 14.48 7.855 8.02 13.457 17.06 16.812 27.122 3.354 10.063 4.457 20.74 3.315 32.03h-114.38zm88.852-19.88c-.33-4.42-1.64-8.838-3.928-13.256-2.293-4.418-5.36-8.425-9.205-12.026-3.846-3.598-8.387-6.504-13.62-8.713-5.24-2.21-11.046-3.23-17.428-3.068-6.546 0-12.48 1.066-17.795 3.19-5.32 2.13-9.86 4.95-13.623 8.468-3.766 3.52-6.75 7.486-8.96 11.904-2.208 4.417-3.478 8.92-3.803 13.5h88.36zM608.693 96.938h24.053v20.618c3.27-6.873 8.63-12.722 16.076-17.55 7.445-4.824 17.14-7.156 29.086-6.995 10.635.166 19.428 2.007 26.385 5.523 6.953 3.52 12.477 8.1 16.568 13.745 4.09 5.646 6.954 11.988 8.59 19.02 1.636 7.04 2.456 13.99 2.456 20.864v78.297H706.38v-72.564c0-6.067-.618-11.602-1.85-16.603-1.23-5-3.24-9.346-6.032-13.035-2.79-3.69-6.445-6.52-10.96-8.487-4.518-1.966-10.056-2.95-16.622-2.95-12.643.163-21.92 3.81-27.83 10.944-5.914 7.133-8.867 16.52-8.867 28.164v74.53h-25.526V96.94zM760.128 48.832h25.527V149.71l52.28-52.772h30.925L809.462 155.6l61.117 74.86h-29.7l-55.225-68.725v68.725h-25.527V48.832z"/></g><path fill="#4E4E4E" d="M999.727 112.795c26.702 31.688 22.662 79.016-9.022 105.716-31.685 26.702-79.016 22.66-105.717-9.02-26.704-31.683-22.663-79.014 9.024-105.715 31.68-26.705 79.014-22.663 105.715 9.02z"/><path fill="#FFF" d="M984.227 116.27c23.694 28.117 20.11 70.117-8.006 93.81-28.116 23.694-70.117 20.11-93.812-8.005-23.695-28.116-20.11-70.117 8.01-93.812 28.113-23.697 70.117-20.11 93.81 8.006z"/><text transform="translate(995.387 102.04)" fill="#4E4E4E" font-family="'AvantGardeITCbyBT-Book'" font-size="30.369">TM</text><path fill="#FFF" d="M913.34 202.142s24.66 13.367 49.994 8.497c0 0-22.113 8.65-49.995-8.498z"/><path fill="#FFF" d="M989.207 131.565c-6.827-14.35-18.35-24.943-31.847-30.855-.593-.068-1.177-.39-1.734-.742-15.912-6.417-34.357-6.413-51.07 1.544-31.677 15.076-45.135 52.976-30.058 84.653 7.02 14.745 18.988 25.536 32.968 31.343.134-.007.275.01.426.075.065.027.103.07.153.104.016.006.028.003.045.01.047.012.092.007.14.03.087.032.14.09.205.138.13-.01.265-.002.412.06.14.058.248.137.334.23.083.007.164.01.254.05.076.033.124.083.185.127.027.01.056.02.085.032.172-.043.355-.047.562.04.067.027.118.066.17.104.09.01.185.016.28.057.17.07.285.176.373.292.683.238 1.37.456 2.062.665.137-.01.28.01.433.073.055.023.088.062.135.092l.23.066c.11-.012.226.008.35.045.127-.02.267-.015.414.038.132-.005.27.013.417.076.013.004.016.012.026.016.07.01.143.025.22.057.128.056.226.13.31.213.09.008.178.025.275.067.016.005.026.014.037.023.015.004.027 0 .04.007.024.01.033.026.052.036.056.014.11.024.166.04.17-.04.355-.046.56.04.085.037.14.09.204.142.235.054.47.112.705.165.07.005.148.026.222.047.164-.034.34-.038.535.046.042.02.066.05.104.072.095.006.19.022.296.067.013.005.02.014.032.02.047.01.096.02.144.027.166-.038.347-.04.55.043.05.023.08.06.122.086 12.89 2.535 26.655 1.172 39.428-4.908 3.512-1.672 6.785-3.64 9.835-5.83-.018-.05-.023-.103-.03-.152-.14.07-.308.09-.496.01-.205-.087-.308-.242-.345-.405-.123.28-.422.48-.783.326-.245-.102-.345-.298-.356-.5-.145.22-.406.362-.723.23-.732-.312-.252-1.45.483-1.14.245.104.345.3.354.5.146-.22.407-.36.722-.227.205.085.306.24.343.403.124-.278.422-.478.784-.324.184.076.292.208.338.355.184-.137.427-.19.704-.075.082.036.14.09.198.138 23.565-17.79 32.208-50.258 19.02-77.963zm-27.08 77.836c-.042-.02-.07-.047-.104-.07-.13.05-.278.06-.443-.01-.73-.31-.25-1.446.482-1.137.042.02.067.048.104.07.127-.05.278-.06.442.008.734.312.253 1.448-.482 1.14zm2.9.372c-.054-.023-.087-.06-.126-.09-.143.085-.32.113-.52.028-.18-.077-.287-.206-.334-.35-.15.198-.4.314-.697.19-.736-.312-.253-1.45.48-1.14.183.076.29.205.335.35.15-.198.4-.314.695-.188.055.024.088.057.13.09.143-.085.32-.113.518-.03.734.31.252 1.45-.48 1.14z"/><path fill="#89C240" d="M952.468 102.3s9.31 55.427-34.457 48.954c0 0-40.53-5.703-49.26 12.778-7.23-25.254 24.503-79.524 83.718-61.73z"/><path fill="#68B5E5" d="M872.638 167.845s43.687-35.307 59.444 6.036c0 0 12.907 36.647 36.174 36.46-23.982 20.19-82.19 17.854-95.618-42.495z"/><path fill="#89C240" d="M955.95 100.163c-.24-.143-.48-.292-.708-.438-57.648-20.462-88.278 33.923-86.198 52.764 10.537-15.826 49.176-3.166 49.176-3.166 41.87 8.654 38.035-45.506 37.73-49.16z"/><path fill="#68B5E5" d="M930.487 174.97c-13.807-42.035-61.588-8.132-61.588-8.132 5.19 29.878 22.81 45.15 41.303 51.553.02.008.042.005.063.015.01.004.014.014.025.018 19.187 6.614 39.292 3.693 47.426-2.384-18.97-1.254-27.23-41.07-27.23-41.07z"/><path fill="#FFF" d="M953.776 99.092c-.245-.157-.487-.327-.74-.43-.73-.294-1.54-.414-2.317-.563-26.336 6.672-33.497 36.163-33.497 36.163 10.08-26.898 27.676-33.542 36.553-35.17zM954.802 99.472c-.09-.015-.18-.027-.27-.048l-11.525 30.7 14.11-29.446c-.81-.19-1.6-.8-2.315-1.206z"/><path fill="#F89B34" d="M968.963 204.783s-15.477-6.224-25.677-17.25c-.915-.985-1.78-2.014-2.596-3.078-7.13-9.314-7.862-19.967 3.816-34.34 0 0 25.317-27.84 13.032-49.23 27.75 9.137 56.95 62.062 11.425 103.898z"/><path fill="#FFF" d="M946.494 96.965c-.698-.264-1.33-.7-2.068-.82-.234-.04-.376-.18-.45-.35-38.314.65-53.07 47.168-53.07 47.168 17.555-43.344 45.87-46.34 55.588-45.998z"/><path fill="#FFF" d="M913.772 95.784s17.58 18.15 40.67 20.81c0 0-21.34 1.46-40.67-20.81z"/><path fill="#F89B34" d="M970.223 209.485s-15.294-7.523-24.99-18.994c-.864-1.026-1.692-2.093-2.457-3.193-6.704-9.623-8.89-21.92 3.42-35.754 0 0 30.273-27.15 21.826-44.185 25.783 13.69 44.555 69.803 2.2 102.127z"/><path fill="#FFF" d="M900.477 102.533c-.084.086-.193.14-.318.157 15.978 21.01 35.19 22.115 35.19 22.115-16.764-4.09-29.446-16.265-34.873-22.272zM944.535 182.775c-10.193 26.602-27.622 33.224-36.578 34.852.034.02.06.042.09.06.015.006.027.004.044.01.048.013.093.008.14.03.088.034.144.09.207.14.13-.01.264-.003.41.06.134.057.236.132.32.217.085.01.172.022.267.06.102.045.174.108.246.17.177-.05.37-.06.586.03.072.03.135.068.19.106.087.014.17.016.26.055.026.01.04.03.063.042 26.337-6.505 33.755-35.832 33.755-35.832zM906.97 217.237l11.747-30.516-14.358 29.32"/><path fill="#FFF" d="M970.916 174.268c-18.007 43.528-46.622 46.036-56.13 45.574.11.004.224.02.344.07.01.003.014.01.02.013.074.01.147.028.225.06.137.058.24.135.325.223.083.008.17.017.26.058.017.006.026.016.043.024.012.003.022.002.035.006.058.026.09.063.138.096.187-.065.4-.08.64.02.103.045.173.108.245.17.01 0 .014 0 .02.003.05.02.078.056.12.082.09.01.18.016.28.057.016.007.024.02.04.027.133-.025.273-.03.43.015.162-.032.337-.037.532.047.044.02.068.052.108.076.093.005.188.02.29.063.012.006.018.014.028.02 37.264-1.486 52.008-46.702 52.008-46.702z"/><path fill="#FFF" d="M955.906 217.668c-4.85-.693-26.054-4.474-40.444-19.034 0 0 11.706 17.208 40.3 19.088.045-.025.094-.038.144-.054zM961.313 208.452c-8.924-1.73-21.76-5.638-32.038-14.56 0 0 10.164 12.55 32.164 15.333-.253-.198-.268-.524-.127-.773z"/></svg>