<svg xmlns="http://www.w3.org/2000/svg" viewBox="0 0 205.337 205.337" width="512" height="512"><g fill="#fff"><path d="M37.224 101.557c1.507 6.213 3.915 12.154 7.154 17.69l-15.94 15.937 1.922 1.918C36.1 142.842 43.73 146 51.847 146c5.264 0 10.425-1.36 14.977-3.93 5.468 3.345 11.374 5.858 17.558 7.464v22.4h2.706c13.596 0 25.542-9.05 29.246-22.1 6.242-1.502 12.2-3.914 17.748-7.164l15.933 15.947 1.922-1.918c9.68-9.675 11.69-24.602 4.97-36.466 3.347-5.465 5.86-11.363 7.466-17.565h22.547v-2.707c0-13.675-9.133-25.642-22.268-29.296-1.492-6.22-3.897-12.16-7.143-17.69l15.936-15.947-1.91-1.915c-5.745-5.737-13.375-8.9-21.5-8.9-5.263 0-10.428 1.36-14.976 3.936-5.465-3.345-11.36-5.858-17.554-7.468V0H114.8c-13.76 0-25.746 9.187-29.343 22.407-6.19 1.507-12.132 3.905-17.647 7.143L51.87 13.603l-1.91 1.918c-9.682 9.685-11.693 24.598-4.98 36.47-3.342 5.47-5.847 11.37-7.46 17.557H14.973v2.71c0 13.678 9.122 25.646 22.25 29.3zm4.588-26.594l.476-2.112c1.557-6.903 4.29-13.416 8.142-19.36l.945-1.465-.945-1.467c-5.798-9-5.128-20.854 1.546-29.186L67.02 36.425l1.833-1.163c5.984-3.79 12.512-6.46 19.405-7.934l1.725-.37.354-1.728c2.226-10.533 11.094-18.496 21.76-19.662V26.98l2.11.48c6.894 1.546 13.407 4.287 19.36 8.142l1.463.956 1.47-.956c4.034-2.598 8.708-3.97 13.533-3.97 5.72 0 11.234 1.95 15.654 5.505l-15.053 15.056 1.152 1.832c3.8 6.005 6.478 12.537 7.95 19.45l.37 1.708 1.708.37c10.457 2.26 18.36 11.11 19.54 21.715H160.08l-.477 2.1c-1.55 6.9-4.29 13.418-8.138 19.37l-.963 1.474.963 1.46c5.783 9.008 5.128 20.86-1.542 29.186l-15.045-15.042-1.843 1.152c-5.998 3.8-12.562 6.478-19.473 7.95l-1.707.368-.376 1.7c-2.31 10.38-11.156 18.234-21.682 19.397V145.25l-2.112-.476c-6.896-1.56-13.417-4.29-19.362-8.138l-1.467-.963-1.47.963c-4.027 2.588-8.705 3.962-13.536 3.962-5.714 0-11.233-1.947-15.642-5.504l15.05-15.053-1.16-1.824c-3.795-6.002-6.468-12.544-7.95-19.455l-.365-1.706-1.707-.37c-10.46-2.268-18.37-11.122-19.533-21.715h21.27v-.007z"/><path d="M80.42 92.188h.03l21.723-1.202-22.364 24.99c-.745.835-.71 2.116.08 2.91.398.398.928.624 1.493.624.53 0 1.027-.197 1.417-.54l37.746-33.763c.65-.573.884-1.478.59-2.283-.278-.816-1.026-1.37-1.878-1.417l-15.5-.862 26.347-24.547c.65-.59.852-1.507.523-2.326-.31-.802-1.11-1.338-1.98-1.338l-16.68.154c-.6 0-1.174.26-1.564.7l-31.65 35.378c-.574.637-.702 1.546-.33 2.323.343.73 1.062 1.198 1.996 1.198zm32.507-35.377l10.314-.092-26.006 24.225c-.612.565-.823 1.464-.537 2.258.286.803 1.024 1.354 1.875 1.397l15.368.852-5.662 5.06.455-.51c.573-.64.698-1.55.333-2.33-.36-.736-1.088-1.19-1.91-1.19l-21.843 1.21 27.614-30.88zM80.274 91.24v.028l-.004-.04.004.01zM157.885 180.023c-3.66 3.343-7.287 4.964-11.08 4.964h-.387c-4.982-.293-8.568-3.804-9.584-4.907-.3-.3-7.526-7.33-16.917-7.33l-.573.012c-5.368.197-10.207 2.716-14.376 7.494-3.235 3.693-6.603 5.565-10.17 5.565-5.87-.074-10.355-5.503-10.362-5.503l-.63-.573c-4.688-3.5-12.583-7.24-20.675-7.24-6.756 0-12.464 2.61-16.984 7.745-3.335 3.782-6.99 5.74-10.876 5.836l.014.93-.064-.92h-.258c-5.035 0-9.423-3.017-11.6-4.828l-.636-.523-4.105 3.937.78.66c2.79 2.404 8.504 6.416 15.558 6.416h.34c5.576-.115 10.65-2.734 15.092-7.773 3.41-3.887 7.734-5.844 12.834-5.844 8.063 0 15.59 5.01 16.87 5.892 2.524 2.724 7.76 7.32 14.585 7.455 5.213 0 10.238-2.602 14.54-7.505 3.13-3.586 6.492-5.4 10.282-5.565h.42c5.68 0 10.768 3.837 12.192 5.02l.55.466c.92 1.038 5.856 6.23 13.29 6.728 5.37.302 10.76-1.878 15.74-6.416 3.606-3.296 7.668-4.964 12.088-4.964 5.39 0 9.974 2.53 12.232 4.04l.694.46 3.654-4.346-.823-.58c-2.76-1.96-8.48-5.247-15.82-5.247-5.822-.003-11.154 2.17-15.835 6.446z"/><path d="M173.732 187.156c-5.837 0-11.166 2.17-15.85 6.435-3.662 3.358-7.288 4.986-11.08 4.986h-.388c-4.982-.3-8.568-3.82-9.584-4.924-.77-.748-7.777-7.308-16.917-7.308l-.573.01c-5.368.194-10.207 2.703-14.376 7.484-3.228 3.69-6.592 5.565-10.16 5.565H94.8c-5.87-.072-10.354-5.497-10.36-5.508l-.63-.57c-4.69-3.492-12.584-7.232-20.676-7.232-6.757 0-12.465 2.598-16.985 7.734-3.33 3.783-6.99 5.74-10.877 5.837l.014.852-.043-.845h-.286c-5.225 0-9.85-3.36-11.6-4.816l-.636-.533-4.105 3.938.78.673c2.788 2.395 8.503 6.407 15.557 6.407h.344c5.57-.115 10.644-2.734 15.092-7.773 3.418-3.88 7.734-5.848 12.834-5.848 8.063 0 15.59 5.02 16.87 5.894 3.08 3.335 8.11 7.326 14.585 7.45 5.213 0 10.238-2.597 14.54-7.5 3.13-3.586 6.492-5.41 10.264-5.565l.437-.01c5.67 0 10.77 3.846 12.194 5.02l.55.483c.92 1.038 5.874 6.224 13.29 6.728 5.457.29 10.768-1.89 15.74-6.438 3.606-3.285 7.68-4.953 12.088-4.953 5.4 0 9.974 2.53 12.232 4.044l.694.464 3.654-4.345-.823-.592c-2.75-1.957-8.48-5.242-15.808-5.242z"/></g></svg>