<svg xmlns="http://www.w3.org/2000/svg" width="512" height="512" viewBox="0 0 106.583 106.583"><g fill="#FFF"><path d="M61.4 33.937v10.808h18.36l-3.062-10.808M61.486 59.05h21.42l-3.068-10.8H61.486"/><path d="M79.4 27.14H12.69c-1.934 0-3.51 1.272-3.51 2.827L0 77.45c0 1.56 1.572 2.83 3.51 2.83h87.512c1.938 0 3.512-1.27 3.512-2.83l-11.63-47.483c0-1.555-1.57-2.828-3.503-2.828zM4.21 76.882l9.18-46.348h65.306l11.63 46.348H4.21z"/><path d="M33.048 33.937h-16.52l-3.062 10.808h19.582M37.52 33.937H57.1V44.74H37.52zM10.487 59.05H33.13v-10.8H13.55M37.594 48.25h19.583V59.05H37.594zM8.042 73.48h25.09V62.67H11.1M37.594 62.67h19.583v10.81H37.594zM61.486 62.67v10.81h24.478l-3.06-10.81M50.82 82.793h-7.742v15.38h-9.095v5.236h26.165v-5.237h-9.33M81.557 24.858c1.93 0 3.504 1.268 3.504 2.83l3.272 13.35c3.196-2.657 5.28-6.616 5.28-11.098 0-8-6.484-14.487-14.492-14.487-6.205 0-11.46 3.925-13.518 9.41h15.954v-.005zM106.368 29.61l-7.953-2.137c-.1-.03-.213-.007-.295.06-.085.063-.13.16-.13.27v4.275c0 .104.045.207.13.27.082.067.195.084.295.055l7.953-2.137c.287-.08.287-.576 0-.656zM76.98 11.77h4.282c.106 0 .205-.05.268-.133.062-.083.085-.19.062-.29L79.45 3.393c-.076-.294-.572-.294-.65 0l-2.14 7.952c-.03.1-.007.21.06.29.06.085.162.134.26.134zM93.48 18.603c.075.074.178.11.284.096.1-.01.194-.074.25-.167l4.105-7.134c.15-.265-.2-.615-.466-.46l-7.13 4.11c-.088.048-.152.144-.166.245-.014.104.023.21.096.284l3.026 3.023zM92.37 41.343c-.05-.087-.143-.15-.242-.164-.105-.017-.208.02-.283.093l-2.775 2.775.25 1.033 6.7 3.86c.264.15.616-.2.465-.463l-4.114-7.134zM62.848 18.708c.096.007.2-.032.273-.106l3.026-3.023c.07-.075.113-.177.1-.278 0-.097-.063-.18-.145-.228L59.505 11.5c-.24-.13-.596.217-.462.462l3.576 6.596c.052.09.13.14.23.15z"/></g></svg>