<svg xmlns="http://www.w3.org/2000/svg" width="512" height="512" viewBox="0 0 102.562 102.562"><path d="M88.734 51.517c-.63-.575-1.28-1.095-1.93-1.602-1.314-1-2.663-1.896-4.045-2.695-2.753-1.605-5.63-2.88-8.59-3.905-2.965-1.02-6.01-1.79-9.173-2.228-1.58-.225-3.192-.35-4.835-.38-.582-.004-1.167.008-1.756.03-.157-3.067-2.368-5.598-5.29-6.234.212-.544.408-1.083.59-1.624.512-1.567.922-3.134 1.227-4.696.62-3.133.883-6.266.89-9.396.004-3.133-.263-6.266-.88-9.394-.304-1.567-.71-3.133-1.225-4.7-.27-.782-.547-1.566-.885-2.348-.33-.78-.688-1.564-1.153-2.346-.464.782-.828 1.565-1.157 2.348-.333.782-.614 1.565-.88 2.348-.514 1.567-.924 3.133-1.23 4.7-.617 3.13-.88 6.26-.875 9.394.003 3.13.273 6.262.893 9.396.302 1.565.712 3.133 1.224 4.695.182.542.382 1.084.59 1.625-2.927.636-5.147 3.18-5.293 6.264-.016 0-.03 0-.047-.004-.85-.06-1.682-.07-2.51-.063-1.646.025-3.26.15-4.84.376-3.16.44-6.205 1.214-9.165 2.237-2.958 1.03-5.835 2.303-8.586 3.915-1.384.803-2.73 1.7-4.04 2.695-.655.51-1.307 1.026-1.935 1.595-.638.57-1.254 1.167-1.843 1.85.89.18 1.75.27 2.596.323.85.058 1.68.068 2.503.062 1.65-.03 3.265-.154 4.84-.377 3.163-.438 6.208-1.215 9.17-2.23 2.96-1.02 5.835-2.295 8.59-3.903 1.385-.8 2.732-1.696 4.043-2.695.532-.414 1.058-.84 1.576-1.293.602 1.773 1.928 3.212 3.624 3.977l-5.146 55.328h15.806L54.24 47.328c1.622-.666 2.93-1.95 3.627-3.558.322.264.644.52.973.772 1.313.996 2.658 1.896 4.038 2.695 2.758 1.608 5.63 2.88 8.59 3.914 2.963 1.027 6.002 1.8 9.167 2.238 1.582.227 3.193.353 4.843.38.825.004 1.656-.003 2.505-.064.85-.055 1.708-.144 2.598-.33-.593-.694-1.212-1.295-1.846-1.857zm-37.05-7.826c-1.435 0-2.602-1.166-2.602-2.6 0-1.433 1.167-2.596 2.6-2.596 1.434 0 2.6 1.164 2.6 2.597-.002 1.43-1.167 2.6-2.6 2.6z" fill="#fff"/></svg>